<svg viewBox="0 0 293 64" fill="none" xmlns="http://www.w3.org/2000/svg">
<path d="M30.9805 10.6953H43.0938V51H35.2461V23.7383C35.2461 22.9544 35.2552 21.8607 35.2734 20.457C35.2917 19.0352 35.3008 17.9414 35.3008 17.1758L27.6719 51H19.4961L11.9219 17.1758C11.9219 17.9414 11.931 19.0352 11.9492 20.457C11.9674 21.8607 11.9766 22.9544 11.9766 23.7383V51H4.12891V10.6953H16.3789L23.707 42.3867L30.9805 10.6953ZM51.4883 56.7148L52.4727 56.7695C53.2383 56.806 53.9674 56.7786 54.6602 56.6875C55.3529 56.5964 55.9362 56.3867 56.4102 56.0586C56.8659 55.7487 57.2852 55.1016 57.668 54.1172C58.069 53.1328 58.2331 52.5312 58.1602 52.3125L47.2227 21.1953H55.8906L62.3984 43.1797L68.5508 21.1953H76.8359L66.6094 50.5078C64.6406 56.1589 63.082 59.6589 61.9336 61.0078C60.7852 62.375 58.4883 63.0586 55.043 63.0586C54.3503 63.0586 53.7943 63.0495 53.375 63.0312C52.9557 63.0312 52.3268 63.0039 51.4883 62.9492V56.7148ZM90.2617 17.6953V26.582H100.16C101.928 26.582 103.359 26.2539 104.453 25.5977C105.565 24.9232 106.121 23.7383 106.121 22.043C106.121 20.1654 105.392 18.9258 103.934 18.3242C102.676 17.9049 101.072 17.6953 99.1211 17.6953H90.2617ZM90.2617 33.2539V44H100.16C101.928 44 103.305 43.763 104.289 43.2891C106.076 42.4141 106.969 40.737 106.969 38.2578C106.969 36.1615 106.103 34.7214 104.371 33.9375C103.405 33.5 102.047 33.2721 100.297 33.2539H90.2617ZM101.801 10.6953C106.741 10.7682 110.241 12.1992 112.301 14.9883C113.54 16.7018 114.16 18.7526 114.16 21.1406C114.16 23.6016 113.54 25.5794 112.301 27.0742C111.608 27.9128 110.587 28.6784 109.238 29.3711C111.298 30.1185 112.848 31.3034 113.887 32.9258C114.944 34.5482 115.473 36.5169 115.473 38.832C115.473 41.2201 114.871 43.362 113.668 45.2578C112.902 46.5156 111.945 47.5729 110.797 48.4297C109.503 49.4141 107.971 50.0885 106.203 50.4531C104.453 50.8177 102.548 51 100.488 51H82.2227V10.6953H101.801ZM138.359 36.5078C137.867 36.8177 137.366 37.0729 136.855 37.2734C136.363 37.4557 135.68 37.6289 134.805 37.793L133.055 38.1211C131.414 38.4128 130.238 38.7682 129.527 39.1875C128.324 39.8984 127.723 41.0013 127.723 42.4961C127.723 43.8268 128.087 44.793 128.816 45.3945C129.564 45.9779 130.466 46.2695 131.523 46.2695C133.201 46.2695 134.741 45.7773 136.145 44.793C137.566 43.8086 138.305 42.013 138.359 39.4062V36.5078ZM133.629 32.8711C135.069 32.6888 136.099 32.4609 136.719 32.1875C137.831 31.7135 138.387 30.9753 138.387 29.9727C138.387 28.7513 137.958 27.9128 137.102 27.457C136.263 26.9831 135.023 26.7461 133.383 26.7461C131.542 26.7461 130.238 27.2018 129.473 28.1133C128.926 28.7878 128.561 29.6992 128.379 30.8477H120.859C121.023 28.2409 121.753 26.099 123.047 24.4219C125.107 21.7969 128.643 20.4844 133.656 20.4844C136.919 20.4844 139.818 21.1315 142.352 22.4258C144.885 23.7201 146.152 26.1628 146.152 29.7539V43.4258C146.152 44.3737 146.171 45.5221 146.207 46.8711C146.262 47.8919 146.417 48.5846 146.672 48.9492C146.927 49.3138 147.31 49.6146 147.82 49.8516V51H139.344C139.107 50.3984 138.943 49.8333 138.852 49.3047C138.76 48.776 138.688 48.1745 138.633 47.5C137.557 48.6667 136.318 49.6602 134.914 50.4805C133.237 51.4466 131.341 51.9297 129.227 51.9297C126.529 51.9297 124.296 51.1641 122.527 49.6328C120.777 48.0833 119.902 45.8958 119.902 43.0703C119.902 39.4062 121.315 36.7539 124.141 35.1133C125.69 34.2201 127.969 33.582 130.977 33.1992L133.629 32.8711ZM161.055 51H153.262V10.6953H161.055V51ZM185.117 36.5078C184.625 36.8177 184.124 37.0729 183.613 37.2734C183.121 37.4557 182.438 37.6289 181.562 37.793L179.812 38.1211C178.172 38.4128 176.996 38.7682 176.285 39.1875C175.082 39.8984 174.48 41.0013 174.48 42.4961C174.48 43.8268 174.845 44.793 175.574 45.3945C176.322 45.9779 177.224 46.2695 178.281 46.2695C179.958 46.2695 181.499 45.7773 182.902 44.793C184.324 43.8086 185.062 42.013 185.117 39.4062V36.5078ZM180.387 32.8711C181.827 32.6888 182.857 32.4609 183.477 32.1875C184.589 31.7135 185.145 30.9753 185.145 29.9727C185.145 28.7513 184.716 27.9128 183.859 27.457C183.021 26.9831 181.781 26.7461 180.141 26.7461C178.299 26.7461 176.996 27.2018 176.23 28.1133C175.684 28.7878 175.319 29.6992 175.137 30.8477H167.617C167.781 28.2409 168.51 26.099 169.805 24.4219C171.865 21.7969 175.401 20.4844 180.414 20.4844C183.677 20.4844 186.576 21.1315 189.109 22.4258C191.643 23.7201 192.91 26.1628 192.91 29.7539V43.4258C192.91 44.3737 192.928 45.5221 192.965 46.8711C193.02 47.8919 193.174 48.5846 193.43 48.9492C193.685 49.3138 194.068 49.6146 194.578 49.8516V51H186.102C185.865 50.3984 185.701 49.8333 185.609 49.3047C185.518 48.776 185.445 48.1745 185.391 47.5C184.315 48.6667 183.076 49.6602 181.672 50.4805C179.995 51.4466 178.099 51.9297 175.984 51.9297C173.286 51.9297 171.053 51.1641 169.285 49.6328C167.535 48.0833 166.66 45.8958 166.66 43.0703C166.66 39.4062 168.073 36.7539 170.898 35.1133C172.448 34.2201 174.727 33.582 177.734 33.1992L180.387 32.8711ZM216.371 20.4844C219.452 20.4844 221.967 21.2956 223.918 22.918C225.887 24.5221 226.871 27.1927 226.871 30.9297V51H218.887V32.8711C218.887 31.3034 218.677 30.1003 218.258 29.2617C217.492 27.7305 216.034 26.9648 213.883 26.9648C211.24 26.9648 209.426 28.0859 208.441 30.3281C207.931 31.513 207.676 33.026 207.676 34.8672V51H199.91V21.25H207.43V25.5977C208.432 24.0664 209.38 22.9635 210.273 22.2891C211.878 21.0859 213.91 20.4844 216.371 20.4844ZM251.891 31.8867C251.745 30.7747 251.371 29.7721 250.77 28.8789C249.895 27.6758 248.536 27.0742 246.695 27.0742C244.07 27.0742 242.275 28.3776 241.309 30.9844C240.798 32.3698 240.543 34.2109 240.543 36.5078C240.543 38.6953 240.798 40.4544 241.309 41.7852C242.238 44.2643 243.988 45.5039 246.559 45.5039C248.382 45.5039 249.676 45.0117 250.441 44.0273C251.207 43.043 251.672 41.7669 251.836 40.1992H259.793C259.611 42.569 258.754 44.8112 257.223 46.9258C254.78 50.3346 251.161 52.0391 246.367 52.0391C241.573 52.0391 238.046 50.6172 235.785 47.7734C233.525 44.9297 232.395 41.2383 232.395 36.6992C232.395 31.5768 233.643 27.5938 236.141 24.75C238.638 21.9062 242.083 20.4844 246.477 20.4844C250.214 20.4844 253.267 21.3229 255.637 23C258.025 24.6771 259.438 27.6393 259.875 31.8867H251.891ZM277.02 26.8281C275.215 26.8281 273.811 27.3932 272.809 28.5234C271.824 29.6536 271.204 31.1849 270.949 33.1172H283.062C282.935 31.0573 282.306 29.4987 281.176 28.4414C280.064 27.3659 278.678 26.8281 277.02 26.8281ZM277.02 20.4023C279.499 20.4023 281.732 20.8672 283.719 21.7969C285.706 22.7266 287.346 24.194 288.641 26.1992C289.807 27.9674 290.564 30.0182 290.91 32.3516C291.111 33.7188 291.193 35.6875 291.156 38.2578H270.758C270.867 41.2474 271.806 43.3438 273.574 44.5469C274.65 45.2943 275.944 45.668 277.457 45.668C279.061 45.668 280.365 45.2122 281.367 44.3008C281.914 43.8086 282.397 43.125 282.816 42.25H290.773C290.573 44.0182 289.652 45.8138 288.012 47.6367C285.46 50.5352 281.887 51.9844 277.293 51.9844C273.501 51.9844 270.156 50.763 267.258 48.3203C264.359 45.8776 262.91 41.9036 262.91 36.3984C262.91 31.2396 264.214 27.2839 266.82 24.5312C269.445 21.7786 272.845 20.4023 277.02 20.4023Z" fill="#007C7A"/>
</svg>
